<?xml version="1.0" standalone="no"?>
<!DOCTYPE svg PUBLIC "-//W3C//DTD SVG 20010904//EN"
 "http://www.w3.org/TR/2001/REC-SVG-20010904/DTD/svg10.dtd">
<svg version="1.0" xmlns="http://www.w3.org/2000/svg"
 width="65.000000pt" height="45.000000pt" viewBox="0 0 65.000000 45.000000"
 preserveAspectRatio="xMidYMid meet">
<metadata>
Created by potrace 1.16, written by Peter Selinger 2001-2019
</metadata>
<g transform="translate(0.000000,45.000000) scale(0.012500,-0.012363)"
fill="#000000" stroke="none">
<path d="M1872 3480 c-66 -14 -140 -59 -221 -135 -111 -105 -179 -213 -221
-354 -12 -40 -28 -75 -35 -77 -6 -3 -63 7 -125 21 -62 14 -141 25 -175 25 -76
0 -173 -28 -237 -69 -57 -36 -524 -376 -556 -405 -72 -63 -80 -156 -28 -311
110 -328 319 -571 621 -719 105 -52 256 -106 338 -121 92 -17 45 -55 -68 -55
-95 0 -125 -15 -125 -61 0 -40 66 -102 138 -130 110 -42 237 -25 350 47 29 19
56 34 61 34 12 0 20 -50 30 -187 4 -65 13 -118 21 -127 17 -22 43 -20 65 4 16
17 17 31 11 112 -3 51 -16 165 -27 253 -23 181 -49 255 -114 319 l-38 38 13
83 c17 107 7 145 -70 291 -76 143 -85 182 -69 300 10 74 10 106 -1 167 -16 94
-8 137 33 180 30 31 40 35 152 53 207 33 519 21 672 -27 43 -14 76 -68 74
-122 0 -23 -2 -127 -3 -232 l-3 -190 -69 -133 c-78 -148 -88 -197 -66 -302
l13 -59 -43 -48 c-74 -84 -83 -109 -111 -318 -13 -93 -23 -228 -26 -355 -4
-193 -3 -207 16 -237 58 -92 180 -94 238 -3 39 60 39 60 122 60 97 0 105 -7
91 -81 -58 -309 -422 -434 -650 -222 -78 72 -119 152 -127 252 -6 78 -21 104
-57 99 -35 -5 -46 -44 -35 -128 24 -192 167 -356 354 -406 75 -20 201 -18 276
6 115 35 222 124 278 230 34 63 61 156 61 210 0 19 9 49 20 65 29 44 27 116
-4 152 l-24 28 -174 0 c-197 0 -211 -4 -229 -66 -11 -35 -10 -48 6 -96 16 -47
17 -56 4 -64 -51 -32 -79 9 -79 117 0 86 17 324 25 362 7 29 18 28 72 -10 104
-71 234 -91 344 -52 63 22 149 98 149 132 0 46 -32 62 -124 62 -67 0 -88 4
-107 19 l-24 19 45 11 c333 83 570 217 743 418 81 95 111 147 98 171 -12 23
-35 34 -56 26 -8 -3 -37 -37 -65 -74 -101 -136 -268 -269 -433 -345 -140 -64
-386 -131 -406 -109 -35 38 -106 296 -96 347 4 18 33 83 66 145 80 153 94 204
84 307 -4 44 -8 98 -8 120 -1 71 16 195 27 204 6 5 47 17 90 26 111 25 188 16
296 -31 47 -20 193 -74 325 -119 133 -46 244 -89 249 -98 8 -12 0 -46 -27
-126 -44 -132 -45 -148 -11 -163 24 -11 29 -9 48 13 28 32 86 205 93 276 5 43
1 62 -20 106 -25 50 -43 65 -294 249 -318 232 -350 253 -428 273 -84 21 -159
19 -290 -11 -163 -36 -161 -37 -197 66 -43 126 -44 133 -22 128 11 -2 25 -21
36 -53 30 -84 93 -114 165 -79 53 27 80 82 64 134 -14 48 -62 90 -102 90 -23
0 -48 17 -114 79 -151 143 -310 208 -443 181z m244 -89 c98 -49 230 -165 219
-193 -10 -25 -31 -29 -86 -17 -34 8 -59 20 -76 40 -15 16 -32 29 -40 29 -25 0
-13 -35 31 -95 45 -59 86 -149 86 -187 0 -18 -4 -20 -37 -14 -242 42 -430 45
-626 11 -115 -20 -125 -16 -107 42 58 176 223 365 368 420 23 8 64 12 110 10
61 -3 86 -11 158 -46z m357 -243 c40 -47 5 -118 -58 -118 -56 0 -96 70 -62
112 33 42 87 45 120 6z m-334 -229 c63 -11 128 -27 145 -37 61 -35 87 -141 46
-182 -25 -25 -49 -25 -197 0 -159 28 -354 28 -532 1 -74 -12 -146 -21 -162
-21 -41 0 -59 24 -59 80 0 105 33 130 215 159 72 11 153 23 180 25 85 6 244
-5 364 -25z m-889 -77 l75 -17 6 -60 c3 -33 9 -75 14 -92 9 -40 9 -40 -128
-12 -140 28 -185 22 -382 -56 -209 -83 -352 -131 -361 -122 -9 9 -36 -13 228
180 211 153 254 178 343 201 30 7 121 -2 205 -22z m1530 3 c38 -13 450 -302
500 -351 12 -12 12 -14 -2 -14 -24 0 -236 75 -371 131 -183 75 -220 79 -409
42 -113 -22 -119 -18 -111 80 3 40 8 75 12 79 4 4 56 19 116 32 119 27 184 27
265 1z m-1560 -281 c39 -8 73 -21 77 -27 11 -18 13 -52 16 -269 l2 -196 73
-144 c84 -167 88 -191 46 -334 -32 -114 -59 -173 -80 -181 -9 -3 -62 5 -118
19 -436 108 -749 384 -870 766 -43 136 -60 118 201 207 125 42 252 88 282 102
166 75 241 87 371 57z m324 -1136 c13 -24 28 -60 31 -81 7 -36 5 -41 -38 -81
-66 -61 -138 -97 -206 -103 -32 -3 -66 -1 -76 5 -16 8 -12 13 33 32 67 29 121
89 172 189 22 45 44 81 50 81 5 0 20 -19 34 -42z m745 -42 c46 -96 112 -168
169 -186 51 -17 60 -28 28 -36 -40 -10 -117 2 -167 25 -64 30 -149 107 -149
135 0 47 47 146 70 146 4 0 27 -38 49 -84z"/>
<path d="M1446 2184 c-31 -31 -17 -64 34 -79 14 -4 41 -25 61 -46 42 -44 48
-46 79 -21 30 24 23 53 -31 115 -37 43 -45 47 -84 47 -26 0 -50 -6 -59 -16z"/>
<path d="M2203 2193 c-23 -9 -83 -101 -83 -126 0 -37 33 -54 66 -33 13 9 31
27 39 40 10 14 30 27 50 30 55 11 69 62 24 86 -18 10 -75 12 -96 3z"/>
<path d="M4311 848 c-36 -19 -61 -59 -74 -119 -11 -47 -16 -54 -39 -57 -52 -6
-65 -62 -15 -62 45 0 50 -20 45 -155 -5 -101 -3 -127 9 -136 11 -10 18 -9 31
5 14 14 18 41 20 149 3 86 8 134 15 139 7 4 28 8 48 8 81 0 72 57 -9 62 -46 3
-47 4 -44 33 5 46 27 72 69 82 31 7 38 13 38 33 0 21 -5 25 -35 28 -19 1 -46
-3 -59 -10z"/>
<path d="M3695 832 c-70 -43 -132 -146 -155 -256 -29 -142 29 -236 145 -236
100 1 183 67 224 179 11 32 21 63 21 68 0 24 -70 30 -161 13 -100 -19 -137
-46 -105 -78 13 -13 22 -13 74 2 80 22 92 21 92 -8 0 -58 -103 -123 -172 -109
-47 9 -61 42 -56 126 6 82 36 152 91 211 39 41 77 47 128 20 36 -18 59 -13 59
14 0 24 -25 46 -69 61 -48 16 -81 14 -116 -7z"/>
<path d="M4567 783 c-4 -3 -7 -26 -7 -50 0 -42 -1 -43 -32 -43 -71 0 -81 -48
-13 -64 22 -5 43 -14 47 -20 4 -6 8 -63 8 -127 0 -91 3 -119 15 -129 12 -10
18 -10 30 0 12 10 15 38 15 136 0 135 4 144 65 144 14 0 28 7 31 15 10 25 -16
45 -57 45 -35 0 -39 3 -39 24 0 57 -36 96 -63 69z"/>
<path d="M4905 690 c-88 -32 -115 -56 -115 -104 0 -46 18 -65 79 -81 66 -17
101 -47 85 -73 -9 -13 -24 -17 -65 -15 -30 0 -68 4 -85 8 -42 9 -53 -17 -20
-50 46 -46 168 -43 217 6 13 13 19 33 19 65 0 38 -5 51 -30 74 -17 16 -52 33
-80 40 -71 17 -66 44 13 70 34 11 39 10 56 -11 27 -33 51 -19 51 30 0 36 -20
72 -38 70 -4 0 -43 -13 -87 -29z"/>
<path d="M2787 676 c-78 -29 -117 -89 -117 -184 0 -77 28 -121 88 -140 36 -12
48 -12 88 2 42 14 48 14 70 -1 42 -27 51 -5 30 75 -13 51 -16 85 -10 144 6 73
6 77 -17 91 -36 23 -89 28 -132 13z m86 -146 c7 -90 7 -96 -14 -112 -33 -27
-83 -23 -108 8 -55 70 11 212 94 202 18 -3 21 -14 28 -98z"/>
<path d="M3089 657 c-65 -35 -91 -84 -87 -169 4 -78 27 -111 90 -130 32 -9 45
-9 74 5 19 9 37 17 39 17 13 0 3 -69 -15 -97 -21 -36 -54 -46 -135 -41 -45 3
-50 1 -53 -19 -6 -43 125 -56 197 -19 45 24 61 72 77 234 20 208 21 198 -26
222 -52 26 -107 25 -161 -3z m125 -40 c17 -12 18 -20 8 -77 -15 -83 -50 -130
-97 -130 -60 0 -85 79 -49 155 25 53 99 81 138 52z"/>
<path d="M4010 654 c-6 -14 -10 -81 -10 -148 0 -97 3 -126 15 -136 34 -28 42
-7 47 137 3 77 2 146 -3 156 -14 25 -38 21 -49 -9z"/>
</g>
</svg>
